<svg width="30" height="30" viewBox="0 0 30 30" fill="none" xmlns="http://www.w3.org/2000/svg">
<path d="M15.0005 4.09082C12.0379 4.09082 11.666 4.10378 10.5024 4.15673C9.34112 4.20991 8.54841 4.39377 7.8548 4.66355C7.13732 4.94218 6.5287 5.31491 5.92236 5.9215C5.31556 6.52787 4.94284 7.1365 4.6633 7.85377C4.39286 8.54764 4.20877 9.34059 4.1565 10.5015C4.10446 11.6651 4.09082 12.0372 4.09082 14.9999C4.09082 17.9626 4.104 18.3333 4.15673 19.497C4.21014 20.6583 4.39399 21.451 4.66353 22.1447C4.94239 22.8622 5.3151 23.4708 5.92167 24.0772C6.52779 24.684 7.13641 25.0576 7.85343 25.3363C8.5475 25.606 9.34043 25.7899 10.5015 25.8431C11.6651 25.896 12.0367 25.909 14.9991 25.909C17.962 25.909 18.3327 25.896 19.4963 25.8431C20.6576 25.7899 21.4512 25.606 22.1453 25.3363C22.8625 25.0576 23.4702 24.684 24.0764 24.0772C24.6832 23.4708 25.0559 22.8622 25.3354 22.1449C25.6036 21.451 25.7877 20.6581 25.8422 19.4972C25.8945 18.3335 25.9081 17.9626 25.9081 14.9999C25.9081 12.0372 25.8945 11.6654 25.8422 10.5017C25.7877 9.34037 25.6036 8.54764 25.3354 7.854C25.0559 7.1365 24.6832 6.52787 24.0764 5.9215C23.4696 5.31468 22.8628 4.94196 22.1446 4.66355C21.4492 4.39377 20.656 4.20991 19.4947 4.15673C18.3311 4.10378 17.9606 4.09082 14.9971 4.09082H15.0005ZM14.0219 6.05673C14.3123 6.05627 14.6364 6.05673 15.0005 6.05673C17.9131 6.05673 18.2583 6.06718 19.4085 6.11946C20.4721 6.16809 21.0494 6.34582 21.4339 6.49514C21.943 6.69287 22.306 6.92923 22.6875 7.31105C23.0693 7.69287 23.3057 8.0565 23.5039 8.56559C23.6532 8.94968 23.8311 9.52696 23.8795 10.5906C23.9318 11.7406 23.9432 12.086 23.9432 14.9974C23.9432 17.9088 23.9318 18.2542 23.8795 19.4042C23.8309 20.4679 23.6532 21.0451 23.5039 21.4292C23.3061 21.9383 23.0693 22.3008 22.6875 22.6824C22.3057 23.0642 21.9432 23.3006 21.4339 23.4983C21.0499 23.6483 20.4721 23.8256 19.4085 23.8742C18.2586 23.9265 17.9131 23.9379 15.0005 23.9379C12.0876 23.9379 11.7424 23.9265 10.5924 23.8742C9.52884 23.8251 8.95158 23.6474 8.56682 23.4981C8.05775 23.3004 7.69412 23.064 7.31231 22.6822C6.93051 22.3004 6.69415 21.9376 6.49597 21.4283C6.34666 21.0442 6.16871 20.467 6.1203 19.4033C6.06803 18.2533 6.05758 17.9079 6.05758 14.9947C6.05758 12.0815 6.06803 11.7379 6.1203 10.5879C6.16894 9.52423 6.34666 8.94696 6.49597 8.56241C6.6937 8.05332 6.93051 7.68968 7.31231 7.30787C7.69412 6.92605 8.05775 6.68968 8.56682 6.4915C8.95135 6.3415 9.52884 6.16423 10.5924 6.11537C11.5988 6.06991 11.9888 6.05627 14.0219 6.054V6.05673ZM20.8235 7.86809C20.1008 7.86809 19.5144 8.45377 19.5144 9.17673C19.5144 9.89946 20.1008 10.4858 20.8235 10.4858C21.5462 10.4858 22.1325 9.89946 22.1325 9.17673C22.1325 8.454 21.5462 7.86764 20.8235 7.86764V7.86809ZM15.0005 9.39764C11.9067 9.39764 9.39839 11.906 9.39839 14.9999C9.39839 18.0938 11.9067 20.601 15.0005 20.601C18.0943 20.601 20.6017 18.0938 20.6017 14.9999C20.6017 11.906 18.094 9.39764 15.0003 9.39764H15.0005ZM15.0005 11.3635C17.0086 11.3635 18.6367 12.9915 18.6367 14.9999C18.6367 17.0081 17.0086 18.6363 15.0005 18.6363C12.9921 18.6363 11.3642 17.0081 11.3642 14.9999C11.3642 12.9915 12.9921 11.3635 15.0005 11.3635V11.3635Z" fill="white"/>
</svg>
