<svg width="30" height="30" viewBox="0 0 30 30" fill="none" xmlns="http://www.w3.org/2000/svg">
<path fill-rule="evenodd" clip-rule="evenodd" d="M16.0264 3.69793C18.8124 3.83485 21.4085 4.98372 23.3913 6.96786C25.5063 9.08419 26.6704 11.8974 26.6693 14.889C26.6668 21.0626 21.641 26.0858 15.467 26.0858C13.1453 26.0858 11.3003 25.3724 10.109 24.7229L4.17041 26.2799L5.75971 20.4778C4.77938 18.7798 4.26353 16.8536 4.26434 14.8802C4.26682 8.70671 9.29221 3.68408 15.4668 3.68408L16.0264 3.69793ZM10.3841 22.6959L10.7241 22.8976C12.1537 23.7455 13.7924 24.1941 15.4632 24.1948H15.4669C20.5989 24.1948 24.7758 20.0199 24.7778 14.8884C24.7788 12.4017 23.8113 10.0636 22.0533 8.30451C20.2954 6.54535 17.9576 5.57601 15.4707 5.5752C10.3347 5.5752 6.1578 9.74968 6.15575 14.8808C6.15505 16.6393 6.64729 18.3519 7.57934 19.8335L7.80072 20.1857L6.86011 23.6198L10.3841 22.6959ZM21.1106 17.5516C21.0407 17.4348 20.8541 17.3649 20.5742 17.2248C20.2943 17.0848 18.9181 16.408 18.6615 16.3145C18.405 16.2213 18.2183 16.1746 18.0318 16.4546C17.8452 16.7346 17.3088 17.3649 17.1454 17.5516C16.9822 17.7383 16.8189 17.7617 16.539 17.6216C16.2591 17.4816 15.3572 17.1861 14.2881 16.233C13.4559 15.4911 12.8942 14.575 12.7309 14.2949C12.5677 14.0149 12.7135 13.8634 12.8536 13.724C12.9795 13.5986 13.1336 13.3972 13.2735 13.2338C13.4135 13.0705 13.4601 12.9537 13.5534 12.7671C13.6467 12.5803 13.6 12.417 13.5301 12.2769C13.4601 12.1368 12.9003 10.7597 12.6671 10.1996C12.4398 9.65407 12.2091 9.72792 12.0373 9.71931C11.8742 9.71123 11.6874 9.70945 11.5008 9.70945C11.3142 9.70945 11.011 9.77942 10.7544 10.0596C10.4978 10.3396 9.7747 11.0165 9.7747 12.3935C9.7747 13.7707 10.7777 15.1009 10.9177 15.2876C11.0576 15.4744 12.8914 18.3002 15.6993 19.5121C16.3671 19.8004 16.8885 19.9725 17.295 20.1014C17.9656 20.3144 18.5757 20.2844 19.0581 20.2123C19.5958 20.132 20.7141 19.5355 20.9474 18.882C21.1806 18.2284 21.1806 17.6683 21.1106 17.5516Z" fill="white"/>
</svg>
