<svg width="22" height="22" viewBox="0 0 22 22" fill="none" xmlns="http://www.w3.org/2000/svg">
<g clip-path="url(#clip0_900_367)">
<path d="M3.14968 14.9617L6.89627 11.215C6.89364 11.1425 6.87488 11.0741 6.87488 11.0002C6.87488 8.72819 8.72386 6.87756 10.996 6.87481C10.9973 6.87353 11.0001 6.87353 11.0028 6.87481C11.0028 6.87481 11.0028 6.87481 11.004 6.87481C11.0766 6.87481 11.1437 6.89229 11.2147 6.89632L13.683 4.42828C12.8544 4.25103 11.9829 4.12479 11.0067 4.12479C11.0067 4.12479 11.0067 4.12479 11.0054 4.12479C11.004 4.12479 11.0028 4.12479 11 4.12479C11 4.12479 10.9972 4.12479 10.9946 4.12479C10.9933 4.12479 10.9933 4.12479 10.9933 4.12479C5.65816 4.12754 2.69314 7.02795 0.284013 10.1619C-0.0946709 10.6564 -0.0946709 11.3439 0.284013 11.8381C1.13952 12.9512 2.07276 14.0271 3.14968 14.9617Z" fill="#C5C5C5"/>
<path d="M21.7161 10.1619C20.8606 9.04916 19.9274 7.97318 18.8504 7.0386L15.1039 10.7853C15.1065 10.8578 15.1253 10.9262 15.1253 11.0001C15.1253 13.2721 13.2763 15.1224 11.0042 15.1255C11.0029 15.1255 11.0029 15.1255 11.0029 15.1255C11.0029 15.1255 11.0015 15.1255 11.0001 15.1255C10.9988 15.1255 10.9974 15.1255 10.9974 15.1255C10.9974 15.1255 10.9974 15.1255 10.9961 15.1255C10.9236 15.1255 10.8565 15.1077 10.7852 15.104L8.31716 17.572C9.14571 17.7493 10.0172 17.8755 10.9935 17.8755C10.9935 17.8755 10.9935 17.8755 10.9948 17.8755H10.9961C10.9974 17.8755 11.0001 17.8755 11.0001 17.8755C11.0001 17.8755 11.0015 17.8755 11.0029 17.8755C11.0029 17.8755 11.0029 17.8755 11.0042 17.8755H11.0055C11.0068 17.8755 11.0068 17.8755 11.0068 17.8755C11.0109 17.8755 11.0163 17.8755 11.0216 17.8755C11.027 17.8742 11.0324 17.8742 11.0405 17.8755C16.3528 17.8607 19.3111 14.9657 21.7161 11.8381C22.0947 11.3439 22.0947 10.6564 21.7161 10.1619Z" fill="#C5C5C5"/>
</g>
<defs>
<clipPath id="clip0_900_367">
<rect width="22" height="22" fill="white"/>
</clipPath>
</defs>
</svg>
