<svg width="22" height="22" viewBox="0 0 22 22" fill="none" xmlns="http://www.w3.org/2000/svg">
<g clip-path="url(#clip0_825_39)">
<path d="M20.2228 1.77766C19.9543 1.50876 19.6025 1.37448 19.2507 1.37448C18.8987 1.37448 18.547 1.50876 18.2785 1.77766L1.77747 18.2783C1.24019 18.8154 1.24019 19.6856 1.77747 20.2227C2.04603 20.4912 2.39786 20.6255 2.74964 20.6255C3.10159 20.6255 3.45325 20.4912 3.72181 20.2227L20.2228 3.72199C20.76 3.18489 20.76 2.31443 20.2228 1.77766Z" fill="#C5C5C5"/>
<path d="M3.14968 14.9617L6.89627 11.215C6.89364 11.1425 6.87488 11.0741 6.87488 11.0002C6.87488 8.72819 8.72386 6.87756 10.996 6.87481C10.9973 6.87353 11.0001 6.87353 11.0028 6.87481C11.0028 6.87481 11.0028 6.87481 11.004 6.87481C11.0766 6.87481 11.1437 6.89229 11.2147 6.89632L13.683 4.42828C12.8544 4.25103 11.9829 4.12479 11.0067 4.12479C11.0067 4.12479 11.0067 4.12479 11.0054 4.12479C11.004 4.12479 11.0028 4.12479 11 4.12479C11 4.12479 10.9972 4.12479 10.9946 4.12479C10.9933 4.12479 10.9933 4.12479 10.9933 4.12479C5.65816 4.12754 2.69314 7.02795 0.284013 10.1619C-0.0946709 10.6564 -0.0946709 11.3439 0.284013 11.8381C1.13952 12.9512 2.07276 14.0271 3.14968 14.9617Z" fill="#C5C5C5"/>
<path d="M21.7163 10.1619C20.8608 9.04916 19.9276 7.97318 18.8506 7.0386L15.1041 10.7853C15.1067 10.8578 15.1255 10.9262 15.1255 11.0001C15.1255 13.2721 13.2765 15.1224 11.0044 15.1255C11.0031 15.1255 11.0031 15.1255 11.0031 15.1255C11.0031 15.1255 11.0017 15.1255 11.0003 15.1255C10.999 15.1255 10.9976 15.1255 10.9976 15.1255C10.9976 15.1255 10.9976 15.1255 10.9963 15.1255C10.9238 15.1255 10.8567 15.1077 10.7854 15.104L8.31738 17.572C9.14593 17.7493 10.0174 17.8755 10.9937 17.8755C10.9937 17.8755 10.9937 17.8755 10.995 17.8755H10.9963C10.9976 17.8755 11.0003 17.8755 11.0003 17.8755C11.0003 17.8755 11.0017 17.8755 11.0032 17.8755C11.0032 17.8755 11.0032 17.8755 11.0044 17.8755H11.0057C11.0071 17.8755 11.0071 17.8755 11.0071 17.8755C11.0111 17.8755 11.0165 17.8755 11.0219 17.8755C11.0272 17.8742 11.0326 17.8742 11.0407 17.8755C16.353 17.8607 19.3113 14.9657 21.7164 11.8381C22.0949 11.3439 22.0949 10.6564 21.7163 10.1619Z" fill="#C5C5C5"/>
</g>
<defs>
<clipPath id="clip0_825_39">
<rect width="22" height="22" fill="white"/>
</clipPath>
</defs>
</svg>
