<svg width="120" height="87" viewBox="0 0 120 87" fill="none" xmlns="http://www.w3.org/2000/svg">
<circle cx="89.5" cy="30.5" r="30.5" fill="#F84646"/>
<path d="M34.752 70.8611C48.2139 70.8611 59.127 61.9388 59.127 50.9325C59.127 39.9262 48.2139 31.0039 34.752 31.0039C21.29 31.0039 10.377 39.9262 10.377 50.9325C10.377 61.9388 21.29 70.8611 34.752 70.8611Z" stroke="black" stroke-width="2" stroke-miterlimit="10"/>
<path d="M66.3515 31.7469C69.7041 30.9746 73.2202 30.7987 76.6629 31.231C80.1057 31.6632 83.3952 32.6937 86.3098 34.2529C89.2245 35.812 91.6966 37.8638 93.5597 40.2699C95.4228 42.676 96.6337 45.3806 97.1107 48.2015C97.5876 51.0224 97.3197 53.8942 96.3249 56.6233C95.3301 59.3524 93.6315 61.8756 91.3436 64.0228C89.0556 66.17 86.2315 67.8914 83.0613 69.0711C79.8911 70.2509 76.4485 70.8614 72.9653 70.8618" stroke="black" stroke-width="2" stroke-linecap="round" stroke-linejoin="round"/>
<path d="M1.00003 85.1933C4.80691 80.7661 9.86077 77.1527 15.735 74.6583C21.6091 72.1638 28.1312 70.8615 34.7504 70.8613C41.3697 70.8611 47.8918 72.163 53.7662 74.6571C59.6407 77.1512 64.6949 80.7642 68.5022 85.1912" stroke="black" stroke-width="2" stroke-linecap="round" stroke-linejoin="round"/>
<path d="M72.9654 70.8613C79.5852 70.8574 86.1088 72.1577 91.9837 74.6521C97.8586 77.1465 102.912 80.7616 106.716 85.1912" stroke="black" stroke-width="2" stroke-linecap="round" stroke-linejoin="round"/>
</svg>
