<svg width="47" height="26" viewBox="0 0 47 26" fill="none" xmlns="http://www.w3.org/2000/svg">
<path d="M46.1929 12.5962L39.8948 18.8943C36.4164 22.3726 30.7769 22.3726 27.2986 18.8943C23.8202 15.4159 23.8202 9.77644 27.2986 6.2981C30.7769 2.81976 36.4164 2.81976 39.8948 6.2981L46.1929 12.5962Z" fill="#D6F6FD"/>
<path d="M39.1929 12.5962L32.8948 18.8943C29.4164 22.3726 23.7769 22.3726 20.2986 18.8943C16.8202 15.4159 16.8202 9.77644 20.2986 6.2981C23.7769 2.81976 29.4164 2.81976 32.8948 6.2981L39.1929 12.5962Z" fill="#AEEAFB"/>
<path d="M32.1929 12.5962L25.8948 18.8943C22.4164 22.3726 16.7769 22.3726 13.2986 18.8943C9.82024 15.4159 9.82024 9.77644 13.2986 6.2981C16.7769 2.81976 22.4164 2.81976 25.8948 6.2981L32.1929 12.5962Z" fill="#84D4F4"/>
<path d="M25.1929 12.5962L18.8948 18.8943C15.4164 22.3726 9.77693 22.3726 6.29858 18.8943C2.82024 15.4159 2.82024 9.77644 6.29858 6.2981C9.77692 2.81976 15.4164 2.81976 18.8948 6.2981L25.1929 12.5962Z" fill="#63BBE9"/>
<path d="M18.3848 12.5957L13.7886 17.1919C11.2502 19.7303 7.1346 19.7303 4.59619 17.1919C2.05778 14.6535 2.05778 10.5379 4.59619 7.9995C7.1346 5.4611 11.2502 5.4611 13.7886 7.9995L18.3848 12.5957Z" fill="#3498DB"/>
</svg>
