<svg width="20" height="5" viewBox="0 0 20 5" fill="none" xmlns="http://www.w3.org/2000/svg">
<path d="M18.75 2.25C18.75 1.85218 18.592 1.47064 18.3107 1.18934C18.0294 0.908035 17.6478 0.75 17.25 0.75C16.8522 0.75 16.4706 0.908035 16.1893 1.18934C15.908 1.47064 15.75 1.85218 15.75 2.25C15.75 2.64782 15.908 3.02936 16.1893 3.31066C16.4706 3.59196 16.8522 3.75 17.25 3.75C17.6478 3.75 18.0294 3.59196 18.3107 3.31066C18.592 3.02936 18.75 2.64782 18.75 2.25ZM11.25 2.25C11.25 1.85218 11.092 1.47064 10.8107 1.18934C10.5294 0.908035 10.1478 0.75 9.75 0.75C9.35218 0.75 8.97064 0.908035 8.68934 1.18934C8.40804 1.47064 8.25 1.85218 8.25 2.25C8.25 2.64782 8.40804 3.02936 8.68934 3.31066C8.97064 3.59196 9.35218 3.75 9.75 3.75C10.1478 3.75 10.5294 3.59196 10.8107 3.31066C11.092 3.02936 11.25 2.64782 11.25 2.25ZM3.75 2.25C3.75 1.85218 3.59196 1.47064 3.31066 1.18934C3.02936 0.908035 2.64782 0.75 2.25 0.75C1.85218 0.75 1.47064 0.908035 1.18934 1.18934C0.908035 1.47064 0.75 1.85218 0.75 2.25C0.75 2.64782 0.908035 3.02936 1.18934 3.31066C1.47064 3.59196 1.85218 3.75 2.25 3.75C2.64782 3.75 3.02936 3.59196 3.31066 3.31066C3.59196 3.02936 3.75 2.64782 3.75 2.25Z" stroke="black" stroke-width="1.5" stroke-linecap="round" stroke-linejoin="round"/>
</svg>
