<svg width="11" height="20" viewBox="0 0 11 20" fill="none" xmlns="http://www.w3.org/2000/svg">
<path fill-rule="evenodd" clip-rule="evenodd" d="M2.0664 9.49039C4.8264 6.72199 7.524 4.01959 10.1592 1.38559C10.2971 1.24058 10.3741 1.04811 10.3741 0.847985C10.3741 0.647857 10.2971 0.455386 10.1592 0.310385C9.786 -0.104815 9.1956 -0.0688147 8.9268 0.214385C6.1956 2.95279 3.3384 5.81479 0.3552 8.80159C0.1188 8.99599 0 9.22639 0 9.49039C0 9.75559 0.1188 9.99199 0.3552 10.2008L9.3348 18.968C9.50705 19.1264 9.73431 19.2115 9.96827 19.205C10.2022 19.1985 10.4244 19.101 10.5876 18.9332C11.0172 18.5024 10.8516 18.0776 10.6572 17.876C7.7891 15.085 4.9263 12.2898 2.0664 9.49039Z" fill="black"/>
</svg>
