<svg width="26" height="18" viewBox="0 0 26 18" fill="none" xmlns="http://www.w3.org/2000/svg">
<path d="M23.4974 10.2015L3.57147 16.6336C3.32083 16.7111 3.04513 16.7499 2.76942 16.7499C2.21801 16.7499 1.69167 16.5755 1.29064 16.2462C0.714168 15.7618 0.588848 15.0643 0.964809 14.4638L4.14795 9.46528C4.29833 9.2328 4.67429 9.11655 4.97506 9.25217C5.27583 9.36841 5.42621 9.65902 5.25076 9.89151L2.09269 14.89C1.86712 15.2387 2.14282 15.5099 2.21801 15.5874C2.31827 15.6649 2.61904 15.8781 3.09525 15.7424L22.9961 9.32967C23.4473 9.17467 23.4723 8.86469 23.4723 8.76782C23.4723 8.67095 23.4473 8.3416 22.9961 8.20598L3.09525 1.77383C2.61904 1.61884 2.2932 1.85133 2.21801 1.92883C2.11776 2.00632 1.86712 2.25818 2.09269 2.62629L5.10038 7.3729L16.0033 8.05099C16.3541 8.07036 16.6048 8.30285 16.5797 8.57408C16.5547 8.84532 16.2539 9.03906 15.903 9.01968L4.64923 8.30285C4.42365 8.28347 4.22314 8.1866 4.14795 8.03161L0.964809 3.03314C0.588848 2.43255 0.714168 1.73509 1.31571 1.25074C1.91724 0.766391 2.79449 0.611399 3.59654 0.882634L23.4974 7.2954C24.2744 7.54726 24.7506 8.10911 24.7506 8.74845C24.7506 9.40716 24.2744 9.94963 23.4974 10.2015Z" fill="black" fill-opacity="0.9" stroke="#6B6363" stroke-width="1.5"/>
</svg>
