<svg width="17" height="30" viewBox="0 0 17 30" fill="none" xmlns="http://www.w3.org/2000/svg">
<path d="M15.7803 0.600283C15.997 0.801191 16.172 1.04282 16.2953 1.31137C16.4186 1.57992 16.4878 1.87013 16.499 2.16543C16.5101 2.46072 16.463 2.75533 16.3602 3.0324C16.2575 3.30948 16.1012 3.56361 15.9003 3.78028L5.31927 15.0003L15.9003 26.2203C16.1012 26.437 16.2575 26.6911 16.3602 26.9682C16.4629 27.2453 16.51 27.5398 16.4989 27.8351C16.4877 28.1304 16.4185 28.4206 16.2952 28.6892C16.1719 28.9577 15.997 29.1994 15.7803 29.4003C15.5636 29.6012 15.3095 29.7575 15.0324 29.8602C14.7553 29.9629 14.4607 30.01 14.1654 29.9989C13.8701 29.9877 13.5799 29.9185 13.3114 29.7952C13.0428 29.672 12.8012 29.497 12.6003 29.2803L0.600273 16.5303C0.214408 16.1142 0 15.5677 0 15.0003C0 14.4328 0.214408 13.8863 0.600273 13.4703L12.6003 0.720283C12.8012 0.503578 13.0428 0.328573 13.3114 0.20526C13.5799 0.0819476 13.8701 0.0127437 14.1654 0.00160036C14.4607 -0.00954295 14.7553 0.0375929 15.0324 0.140316C15.3095 0.243038 15.5636 0.399336 15.7803 0.600283Z" fill="#F9AF46"/>
</svg>
