<svg width="67" height="67" viewBox="0 0 67 67" fill="none" xmlns="http://www.w3.org/2000/svg">
<path fill-rule="evenodd" clip-rule="evenodd" d="M33.4998 0C52.0005 0 67 14.9985 67 33.5C67 52.0015 52.0005 67 33.4998 67C14.9983 67 0 52.0015 0 33.5C0 14.9985 14.9983 0 33.4998 0ZM32.2889 2.50679C28.4671 3.04463 24.828 6.11556 22.0031 11.2516C21.1837 12.7414 20.4444 14.3873 19.8002 16.1645C23.6413 15.1992 27.8607 14.6302 32.2889 14.5421V2.50679ZM16.9688 16.9691C17.7701 14.4545 18.7501 12.1411 19.8813 10.0846C21.2816 7.53849 22.9435 5.33982 24.8159 3.65111C14.6339 6.60826 6.60817 14.6341 3.65097 24.8163C5.3397 22.9438 7.53828 21.2819 10.0844 19.8816C12.141 18.7505 14.4543 17.7702 16.9688 16.9691ZM16.1643 19.8003C15.199 23.6415 14.63 27.8609 14.5419 32.2891H2.50662C3.04445 28.4673 6.11538 24.8282 11.2516 22.0035C12.7413 21.1841 14.3871 20.4447 16.1643 19.8003ZM16.9641 32.2891C17.0641 27.4566 17.7599 22.9197 18.9109 18.9111C22.9195 17.76 27.4564 17.0642 32.2889 16.9642V22.1951C30.4861 26.8104 26.8092 30.487 22.1938 32.2891H16.9641ZM14.5419 34.7109H2.50662C3.04445 38.5327 6.11538 42.1716 11.2516 44.9965C12.7413 45.8159 14.3871 46.5553 16.1643 47.1997C15.199 43.3585 14.63 39.1391 14.5419 34.7109ZM18.9109 48.0889C17.7599 44.0803 17.0641 39.5434 16.9641 34.7109H22.1938C26.8092 36.513 30.4861 40.1896 32.2889 44.8049V50.0358C27.4564 49.9358 22.9195 49.24 18.9109 48.0889ZM16.9688 50.0309C14.4543 49.2298 12.141 48.2495 10.0844 47.1184C7.53828 45.7181 5.3397 44.0562 3.65097 42.1837C6.60817 52.3659 14.6339 60.3918 24.8159 63.3488C22.9435 61.6601 21.2816 59.4615 19.8813 56.9153C18.7501 54.8589 17.7701 52.5454 16.9688 50.0309ZM32.2889 64.4932C28.4671 63.9553 24.828 60.8844 22.0031 55.7484C21.1837 54.2586 20.4444 52.6126 19.8002 50.8356C23.6413 51.8007 27.8607 52.3699 32.2889 52.4578V64.4932ZM42.1834 63.3488C44.0559 61.6601 45.7176 59.4615 47.1179 56.9153C48.2485 54.8589 49.2301 52.5454 50.0307 50.0309C52.5449 49.2298 54.858 48.2495 56.9149 47.1184C59.4609 45.7181 61.6601 44.0562 63.3485 42.1837C60.3905 52.3659 52.3656 60.3918 42.1834 63.3488ZM47.2 50.8356C46.5551 52.6126 45.8148 54.2586 44.9957 55.7484C42.1713 60.8844 38.5323 63.9553 34.7104 64.4932V52.4578C39.1386 52.3699 43.3581 51.8007 47.2 50.8356ZM50.8347 47.1997C52.6119 46.5553 54.2584 45.8159 55.7474 44.9965C60.8846 42.1718 63.9549 38.5327 64.4926 34.7109H52.4578C52.369 39.1391 51.7995 43.3585 50.8347 47.1997ZM50.0357 34.7109C49.9352 39.5434 49.2401 44.0803 48.0877 48.0889C44.0798 49.24 39.5429 49.9358 34.7104 50.0358V44.8088C36.5127 40.1918 40.1905 36.5135 44.8071 34.7109H50.0357ZM52.4578 32.2891H64.4926C63.9549 28.4673 60.8846 24.8282 55.7474 22.0035C54.2584 21.1841 52.6119 20.4447 50.8347 19.8003C51.7995 23.6415 52.369 27.8609 52.4578 32.2891ZM48.0877 18.9111C49.2401 22.9197 49.9352 27.4566 50.0357 32.2891H44.8073C40.1905 30.4865 36.5127 26.8082 34.7104 22.1912V16.9642C39.5429 17.0642 44.0798 17.76 48.0877 18.9111ZM50.0307 16.9691C52.5449 17.7702 54.858 18.7505 56.9149 19.8816C59.4609 21.2819 61.6601 22.9438 63.3485 24.8163C60.3905 14.6341 52.3656 6.60826 42.1834 3.65111C44.0559 5.33982 45.7176 7.53849 47.1179 10.0846C48.2485 12.1411 49.2301 14.4545 50.0307 16.9691ZM34.7104 2.50679C38.5323 3.04463 42.1713 6.11556 44.9957 11.2516C45.8148 12.7415 46.5551 14.3873 47.2 16.1645C43.3581 15.1992 39.1386 14.6302 34.7104 14.5421V2.50679Z" fill="#F9AF46"/>
</svg>
