<svg width="91" height="91" viewBox="0 0 91 91" fill="none" xmlns="http://www.w3.org/2000/svg">
<circle cx="45.5" cy="45.5" r="45.5" fill="url(#paint0_radial_0_1068)" fill-opacity="0.6"/>
<circle cx="45.3224" cy="45.3224" r="35.3224" fill="#FAFAFA"/>
<path fill-rule="evenodd" clip-rule="evenodd" d="M41.5995 60.7867C40.8169 60.7867 40.0266 60.6185 39.2899 60.2718C37.6381 59.4917 36.6133 57.9444 36.6133 56.2288V34.7494C36.6133 33.0338 37.6381 31.4864 39.2899 30.7064C41.1559 29.8269 43.3686 30.0844 44.9211 31.3666L57.9194 42.1089C58.962 42.9654 59.5559 44.1992 59.5559 45.4891C59.5559 46.779 58.962 48.0128 57.9194 48.8693L44.9211 59.609C43.983 60.3865 42.8002 60.7867 41.5995 60.7867Z" fill="#3498DB"/>
<mask id="mask0_0_1068" style="mask-type:luminance" maskUnits="userSpaceOnUse" x="36" y="30" width="24" height="31">
<path fill-rule="evenodd" clip-rule="evenodd" d="M41.5995 60.7867C40.8169 60.7867 40.0266 60.6185 39.2899 60.2718C37.6381 59.4917 36.6133 57.9444 36.6133 56.2288V34.7494C36.6133 33.0338 37.6381 31.4864 39.2899 30.7064C41.1559 29.8269 43.3686 30.0844 44.9211 31.3666L57.9194 42.1089C58.962 42.9654 59.5559 44.1992 59.5559 45.4891C59.5559 46.779 58.962 48.0128 57.9194 48.8693L44.9211 59.609C43.983 60.3865 42.8002 60.7867 41.5995 60.7867Z" fill="white"/>
</mask>
<g mask="url(#mask0_0_1068)">
<rect x="13.6707" y="14.8945" width="61.1804" height="61.1804" fill="#3498DB"/>
</g>
<defs>
<radialGradient id="paint0_radial_0_1068" cx="0" cy="0" r="1" gradientUnits="userSpaceOnUse" gradientTransform="translate(45.5 45.5) rotate(90) scale(45.5)">
<stop offset="0.658507" stop-color="#FAFAFA" stop-opacity="0"/>
<stop offset="1" stop-color="#FAFAFA"/>
</radialGradient>
</defs>
</svg>
