<svg width="20" height="22" viewBox="0 0 20 22" fill="none" xmlns="http://www.w3.org/2000/svg">
<path d="M2.90837 10.241C2.83489 11.637 2.91936 13.123 1.67213 14.0584C1.09164 14.4938 0.75 15.177 0.75 15.9027C0.75 16.9008 1.5318 17.75 2.55 17.75H16.95C17.9682 17.75 18.75 16.9008 18.75 15.9027C18.75 15.177 18.4084 14.4938 17.8279 14.0584C16.5806 13.123 16.6651 11.637 16.5916 10.241C16.4001 6.60223 13.3938 3.75 9.75 3.75C6.10617 3.75 3.09988 6.60222 2.90837 10.241Z" stroke="#FF0000" stroke-width="1.5" stroke-linecap="round" stroke-linejoin="round"/>
<path d="M8.25 1.875C8.25 2.70343 8.92157 3.75 9.75 3.75C10.5784 3.75 11.25 2.70343 11.25 1.875C11.25 1.04657 10.5784 0.75 9.75 0.75C8.92157 0.75 8.25 1.04657 8.25 1.875Z" stroke="#FF0000" stroke-width="1.5"/>
<path d="M12.75 17.75C12.75 19.4069 11.4069 20.75 9.75 20.75C8.09315 20.75 6.75 19.4069 6.75 17.75" stroke="#FF0000" stroke-width="1.5" stroke-linecap="round" stroke-linejoin="round"/>
</svg>
