<svg width="21" height="19" viewBox="0 0 21 19" fill="none" xmlns="http://www.w3.org/2000/svg">
<path fill-rule="evenodd" clip-rule="evenodd" d="M4.62299 0.395289C4.9536 0.83513 4.86867 1.46245 4.4333 1.79646C3.38473 2.60088 2.50555 3.60856 1.84724 4.76049C1.5739 5.23878 0.968522 5.40266 0.495087 5.12651C0.0216521 4.85037 -0.140559 4.23878 0.132779 3.76049C0.922757 2.37817 1.97777 1.16896 3.23605 0.203651C3.67143 -0.130352 4.29238 -0.044553 4.62299 0.395289ZM16.2161 0.395289C16.5467 -0.044553 17.1676 -0.130352 17.603 0.203651C18.8613 1.16896 19.9163 2.37817 20.7063 3.76049C20.9796 4.23878 20.8174 4.85037 20.344 5.12651C19.8706 5.40266 19.2652 5.23878 18.9918 4.76049C18.3335 3.60856 17.4543 2.60088 16.4058 1.79646C15.9704 1.46245 15.8855 0.83513 16.2161 0.395289ZM10.4195 2.76052C6.59281 2.76052 3.49063 5.89452 3.49063 9.76052C3.49063 13.6265 6.59281 16.7605 10.4195 16.7605C14.2463 16.7605 17.3484 13.6265 17.3484 9.76052C17.3484 5.89452 14.2463 2.76052 10.4195 2.76052ZM1.51094 9.76052C1.51094 4.78996 5.49946 0.760518 10.4195 0.760518C15.3396 0.760518 19.3281 4.78996 19.3281 9.76052C19.3281 14.7311 15.3396 18.7605 10.4195 18.7605C5.49946 18.7605 1.51094 14.7311 1.51094 9.76052ZM10.4195 4.76052C10.9662 4.76052 11.4094 5.20823 11.4094 5.76052V8.76052H14.3789C14.9256 8.76052 15.3688 9.20823 15.3688 9.76052C15.3688 10.3128 14.9256 10.7605 14.3789 10.7605H10.4195C9.87286 10.7605 9.42969 10.3128 9.42969 9.76052V5.76052C9.42969 5.20823 9.87286 4.76052 10.4195 4.76052Z" fill="#2E82CE"/>
</svg>
