<svg width="30" height="24" viewBox="0 0 30 24" fill="none" xmlns="http://www.w3.org/2000/svg">
<path fill-rule="evenodd" clip-rule="evenodd" d="M10.9091 2.66665C9.40286 2.66665 8.18182 3.86055 8.18182 5.3333C8.18182 6.80605 9.40286 7.99995 10.9091 7.99995C12.4153 7.99995 13.6364 6.80605 13.6364 5.3333C13.6364 3.86055 12.4153 2.66665 10.9091 2.66665ZM5.45455 5.3333C5.45455 2.3878 7.89663 0 10.9091 0C13.9216 0 16.3636 2.3878 16.3636 5.3333C16.3636 8.2788 13.9216 10.6666 10.9091 10.6666C7.89663 10.6666 5.45455 8.2788 5.45455 5.3333ZM17.7273 1.33333C17.7273 0.59695 18.3378 0 19.0909 0C22.1034 0 24.5455 2.3878 24.5455 5.3333C24.5455 8.2788 22.1034 10.6666 19.0909 10.6666C18.3378 10.6666 17.7273 10.0697 17.7273 9.33328C17.7273 8.5969 18.3378 7.99995 19.0909 7.99995C20.5971 7.99995 21.8182 6.80605 21.8182 5.3333C21.8182 3.86055 20.5971 2.66665 19.0909 2.66665C18.3378 2.66665 17.7273 2.0697 17.7273 1.33333ZM23.219 14.3574C23.3936 13.6411 24.129 13.1989 24.8616 13.3696C26.4938 13.75 27.8 14.5011 28.6962 15.5798C29.5935 16.6597 30 17.9722 30 19.3334V20.6667C30 22.4728 28.5066 24 26.6159 24H25.9091C25.156 24 24.5455 23.403 24.5455 22.6667C24.5455 21.9303 25.156 21.3333 25.9091 21.3333H26.6159C26.957 21.3333 27.2727 21.0428 27.2727 20.6667V19.3334C27.2727 18.4987 27.0297 17.8032 26.5795 17.2613C26.1282 16.7182 25.3889 16.2338 24.2293 15.9636C23.4967 15.7928 23.0444 15.0738 23.219 14.3574ZM4.36105 14.5083C6.5067 13.6873 9.06625 13.3333 10.9091 13.3333C12.7519 13.3333 15.3115 13.6873 17.4571 14.5083C18.5301 14.9188 19.5843 15.4778 20.3899 16.2389C21.2155 17.0187 21.8182 18.0542 21.8182 19.3332V20.6665C21.8182 22.4726 20.3247 23.9999 18.4341 23.9999H3.38412C1.49345 23.9999 0 22.4726 0 20.6665V19.3332C0 18.0542 0.602711 17.0187 1.42824 16.2389C2.23391 15.4778 3.28812 14.9188 4.36105 14.5083ZM3.32318 18.1567C2.89161 18.5644 2.72727 18.9456 2.72727 19.3332V20.6665C2.72727 21.0426 3.04303 21.3332 3.38412 21.3332H18.4341C18.7752 21.3332 19.0909 21.0426 19.0909 20.6665V19.3332C19.0909 18.9456 18.9266 18.5644 18.495 18.1567C18.0436 17.7303 17.3506 17.331 16.4633 16.9916C14.6885 16.3125 12.4753 15.9999 10.9091 15.9999C9.34285 15.9999 7.12966 16.3125 5.35486 16.9916C4.46756 17.331 3.77461 17.7303 3.32318 18.1567Z" fill="black"/>
</svg>
