<svg width="39" height="38" viewBox="0 0 39 38" fill="none" xmlns="http://www.w3.org/2000/svg">
<path d="M31.0718 36.013C31.2646 36.2954 31.8774 37.6321 32 37.9871H31.7647C31.5609 38.014 31.3229 37.9906 31.1157 37.9898L7 37.9871C7.08559 37.644 7.68285 36.3855 7.8894 36.013C8.28374 35.9844 8.69429 36.0119 9.09089 36.0124L19.4988 36.013C20.0354 36.0127 20.5759 36.0002 21.1121 36.013H31.0718Z" fill="#62BFF6"/>
<path d="M31.0348 36C31.2352 36.2861 31.8725 37.6404 32 38H31.7553C31.397 37.9582 30.9822 37.9981 30.617 37.9985L19 38V36C19.3381 36.0258 20.3616 36.045 20.6777 36H31.0348Z" fill="#4AA7F3"/>
<path d="M12.4841 27L17.7981 33.9321C18.1772 34.4326 18.5326 34.9907 18.9978 35.4059C18.9989 35.6038 19.0021 35.8021 18.9978 36L9.1382 35.9994C8.76249 35.9988 8.37357 35.9686 8 36L10.3674 30.0023C11.2076 27.8857 10.698 28.3252 12.4841 27Z" fill="#FEFEFE"/>
<path d="M14.229 26L19.0309 32.182C19.2493 32.4638 19.4534 32.7725 19.7086 33.0203V33.1157C20.0562 32.8598 20.9784 31.5456 21.3087 31.1181L22.85 29.1489C23.6244 28.1398 24.3831 27.1208 25.1836 26.1328C25.4324 26.3915 25.9902 26.8191 26.3097 26.9665C27.39 28.0583 27.4962 27.5339 28.1811 29.2346L28.7994 30.7285C29.5178 32.4524 30.3823 34.2635 31 36H21.2827C20.7595 35.9859 20.2322 35.9997 19.7086 36C19.713 35.8014 19.7097 35.6023 19.7086 35.4036C19.2294 34.9869 18.8634 34.4268 18.473 33.9244L13 26.9665C13.4047 26.6407 13.8144 26.3124 14.229 26Z" fill="#E0DFDF"/>
<path d="M6.26922 23.0272L9.32195 23.0283C9.83879 23.0272 10.3447 22.9912 10.862 23.0272C11.1629 23.0277 11.8597 22.9657 12.1009 23.0272C12.5288 23.5524 13.7151 25.0245 14 25.5306C13.5639 25.8506 13.1331 26.1867 12.7075 26.5204C10.7729 27.8827 11.3249 27.4309 10.4148 29.6066L7.85069 35.7718C7.63875 36.1923 7.02593 37.6127 6.93811 38H0C0.298114 36.7743 1.36589 34.7361 1.88347 33.4847L5.8147 24.0959C5.96543 23.7396 6.09429 23.3725 6.26922 23.0272Z" fill="#2EB761"/>
<path d="M10.8066 23.0309C11.1129 23.0315 11.8219 22.961 12.0674 23.0309C12.5029 23.6277 13.71 25.3002 14 25.8753C13.5562 26.2389 13.1178 26.6208 12.6847 27C12.4619 26.7559 10.0026 23.3547 10.0303 23.0849L10.0033 23.1011L10 23.0745C10.2158 22.8993 10.5665 23.1367 10.8066 23.0309Z" fill="#27A15F"/>
<path d="M26.8739 23.0631C27.4288 22.9555 28.2737 23.0181 28.8573 23.0181L32.6483 23.0182C32.8028 23.4683 33.0055 23.9082 33.1905 24.3469L37.6432 34.8281C38.0481 35.791 38.6916 37.0422 39 38H32.0179C31.8929 37.5992 31.2688 36.0894 31.0724 35.7705C30.4275 33.991 29.5249 32.1352 28.7749 30.3686L28.1294 28.8378C27.4144 27.0949 27.3035 27.6324 26.1757 26.5136C25.8421 26.3625 25.2597 25.9243 25 25.6592C25.4315 24.9562 26.3618 23.7284 26.8739 23.0631Z" fill="#2EB761"/>
<path d="M19.0578 0C25.9345 0.0133084 32.0343 5.61143 31.9999 12.1732C31.9823 15.5147 28.8136 20.9056 26.8952 23.5048C26.3631 24.1526 25.3966 25.3481 24.9483 26.0326C24.0801 27.0184 23.2571 28.0351 22.4172 29.042L20.7453 31.0069C20.387 31.4334 19.3867 32.7447 19.0097 33V32.9048C19.0535 31.7011 19.0105 30.4828 19.0107 29.2779L19.0097 19.6014C19.0088 19.2113 18.9883 18.8226 19.0097 18.4325C20.7587 18.5604 22.7443 17.6485 23.9142 16.4576C28.0143 12.2839 24.7268 5.38749 19.0578 5.63082V0Z" fill="#F23239"/>
<path d="M11.7744 23.529C11.6506 23.2961 11.4786 23.0781 11.332 22.858C9.14695 19.5752 6.97983 15.9602 7.00014 11.9213C7.03298 5.36391 12.8664 -0.0334185 19.5001 0.000155796V5.64724C25.009 5.4032 28.2037 12.3196 24.2194 16.5052C23.0825 17.6996 21.153 18.6142 19.4534 18.4859C19.4326 18.8772 19.4525 19.2669 19.4534 19.6581L19.4543 29.3626C19.4541 30.571 19.496 31.7929 19.4534 33C19.1844 32.752 18.9693 32.4431 18.7391 32.1612L13.6777 25.9751C13.3922 25.4805 12.2033 24.0421 11.7744 23.529ZM19.5001 5.64724C15.7604 5.56935 12.9138 8.49637 12.8753 12.0949C12.8384 15.5354 15.9307 18.5604 19.4534 18.4859C21.153 18.6142 23.0825 17.6996 24.2194 16.5052C28.2037 12.3196 25.009 5.4032 19.5001 5.64724Z" fill="#F96C50"/>
</svg>
