<?xml version="1.0" standalone="no"?>
<!DOCTYPE svg PUBLIC "-//W3C//DTD SVG 20010904//EN"
 "http://www.w3.org/TR/2001/REC-SVG-20010904/DTD/svg10.dtd">
<svg version="1.0" xmlns="http://www.w3.org/2000/svg"
 width="1000.000000pt" height="1000.000000pt" viewBox="0 0 1000.000000 1000.000000"
 preserveAspectRatio="xMidYMid meet">

<g transform="translate(0.000000,1000.000000) scale(0.100000,-0.100000)"
fill="#000000" stroke="none">
<path d="M4680 9274 c-570 -51 -1059 -183 -1545 -418 -1094 -529 -1918 -1507
-2254 -2676 -60 -209 -106 -438 -138 -685 -26 -201 -26 -789 0 -990 65 -506
190 -932 401 -1370 294 -610 740 -1151 1288 -1562 534 -401 1141 -667 1803
-788 282 -52 387 -60 765 -60 378 0 483 8 765 60 881 161 1665 578 2290 1217
343 350 596 708 801 1133 217 450 341 883 406 1415 21 168 17 770 -5 945 -65
504 -188 928 -396 1360 -531 1102 -1507 1926 -2681 2264 -208 60 -401 99 -645
132 -119 16 -218 21 -480 24 -181 1 -350 1 -375 -1z m401 -1574 c303 -58 419
-436 200 -655 -244 -246 -660 -71 -661 276 0 177 116 326 292 373 65 18 100
19 169 6z m-824 -945 c76 -34 154 -112 190 -189 25 -54 28 -72 28 -161 0 -91
-3 -106 -31 -165 -67 -142 -193 -220 -354 -221 -89 -1 -155 21 -228 75 -190
139 -211 416 -44 583 118 118 287 148 439 78z m1827 2 c171 -78 261 -270 212
-452 -19 -71 -42 -112 -98 -171 -109 -116 -293 -150 -440 -81 -160 74 -253
255 -218 424 52 250 314 385 544 280z m-914 -533 c204 -96 284 -337 177 -537
-148 -279 -554 -267 -690 21 -78 166 -29 362 118 474 76 58 143 78 245 75 71
-2 97 -8 150 -33z m-1827 -381 c243 -115 300 -436 110 -626 -191 -192 -510
-134 -627 113 -28 58 -31 75 -31 160 0 86 3 101 32 162 51 108 149 190 260
218 70 17 186 5 256 -27z m3598 21 c237 -70 349 -327 239 -550 -93 -190 -326
-265 -520 -167 -310 154 -272 608 60 714 70 23 151 24 221 3z m-2706 -545
c105 -39 192 -133 230 -248 25 -77 18 -197 -17 -273 -69 -150 -213 -235 -379
-226 -274 16 -441 300 -325 553 82 181 299 266 491 194z m1818 5 c136 -44 244
-186 255 -336 21 -297 -283 -507 -550 -381 -240 113 -300 422 -120 615 105
113 261 151 415 102z m-3649 -385 c72 -27 124 -67 172 -132 55 -74 76 -139 75
-230 -2 -159 -81 -284 -221 -351 -59 -28 -74 -31 -165 -31 -89 0 -107 3 -160
28 -246 115 -304 437 -112 629 108 108 266 141 411 87z m5405 21 c215 -35 361
-237 322 -446 -38 -206 -198 -333 -407 -322 -324 17 -481 407 -259 646 60 65
136 107 216 121 30 5 56 9 59 10 3 0 34 -4 69 -9z m-4515 -545 c283 -86 367
-455 150 -655 -159 -147 -402 -137 -549 22 -193 208 -102 549 170 634 55 17
170 17 229 -1z m3706 -21 c142 -67 220 -193 221 -354 1 -89 -21 -155 -75 -228
-139 -190 -416 -211 -583 -44 -119 119 -148 290 -76 444 68 143 194 219 358
215 77 -2 99 -6 155 -33z m-4637 -889 c282 -73 385 -425 187 -639 -196 -213
-548 -142 -650 131 -31 83 -26 215 11 293 82 173 270 262 452 215z m5480 0
c81 -21 125 -46 180 -101 151 -152 152 -398 2 -547 -192 -192 -511 -136 -628
111 -29 61 -32 76 -32 162 0 85 3 102 31 160 82 173 267 262 447 215z"/>
</g>
</svg>
