<?xml version="1.0" encoding="UTF-8"?>
<svg xmlns="http://www.w3.org/2000/svg" width="200" height="200" viewBox="0 0 200 200">
<path d="M98,37h4v1h-4zM95,38h11v1h-11zM92,39h16v1h-16zM90,40h6v1h-6zM105,40h5v1h-5zM87,41h6v1h-6zM107,41h6v1h-6zM85,42h6v1h-6zM110,42h5v1h-5zM83,43h6v1h-6zM112,43h6v1h-6zM80,44h6v1h-6zM98,44h5v1h-5zM114,44h6v1h-6zM77,45h6v1h-6zM95,45h10v1h-10zM117,45h6v1h-6zM75,46h6v1h-6zM93,46h15v1h-15zM119,46h6v1h-6zM73,47h6v1h-6zM90,47h20v1h-20zM121,47h6v1h-6zM70,48h6v1h-6zM88,48h25v1h-25zM124,48h6v1h-6zM68,49h6v1h-6zM85,49h30v1h-30zM126,49h6v1h-6zM65,50h6v1h-6zM83,50h34v1h-34zM128,50h6v1h-6zM63,51h6v1h-6zM81,51h39v1h-39zM131,51h6v1h-6zM60,52h6v1h-6zM78,52h44v1h-44zM133,52h6v1h-6zM59,53h5v1h-5zM76,53h48v1h-48zM136,53h5v1h-5zM57,54h5v1h-5zM73,54h54v1h-54zM138,54h5v1h-5zM56,55h4v1h-4zM71,55h58v1h-58zM140,55h4v1h-4zM55,56h3v1h-3zM68,56h64v1h-64zM142,56h3v1h-3zM55,57h2v1h-2zM66,57h68v1h-68zM143,57h3v1h-3zM54,58h3v1h-3zM64,58h72v1h-72zM144,58h2v1h-2zM53,59h3v1h-3zM62,59h76v1h-76zM144,59h3v1h-3zM53,60h3v1h-3zM61,60h78v1h-78zM145,60h2v1h-2zM53,61h2v1h-2zM60,61h80v1h-80zM145,61h3v1h-3zM52,62h3v1h-3zM59,62h82v1h-82zM145,62h3v1h-3zM52,63h2v1h-2zM59,63h82v1h-82zM146,63h2v1h-2zM51,64h3v1h-3zM59,64h83v1h-83zM146,64h3v1h-3zM51,65h2v1h-2zM58,65h84v1h-84zM147,65h2v1h-2zM51,66h2v1h-2zM58,66h84v1h-84zM147,66h3v1h-3zM50,67h2v1h-2zM57,67h86v1h-86zM148,67h2v1h-2zM50,68h2v1h-2zM57,68h86v1h-86zM148,68h2v1h-2zM49,69h3v1h-3zM56,69h88v1h-88zM148,69h3v1h-3zM49,70h2v1h-2zM56,70h88v1h-88zM149,70h2v1h-2zM48,71h3v1h-3zM56,71h88v1h-88zM149,71h3v1h-3zM48,72h3v1h-3zM55,72h36v1h-36zM93,72h52v1h-52zM150,72h2v1h-2zM48,73h2v1h-2zM55,73h30v1h-30zM91,73h54v1h-54zM150,73h2v1h-2zM47,74h3v1h-3zM54,74h26v1h-26zM88,74h58v1h-58zM150,74h3v1h-3zM47,75h2v1h-2zM54,75h23v1h-23zM86,75h60v1h-60zM151,75h2v1h-2zM46,76h3v1h-3zM54,76h21v1h-21zM85,76h61v1h-61zM151,76h3v1h-3zM46,77h2v1h-2zM53,77h20v1h-20zM80,77h1v1h-1zM84,77h63v1h-63zM152,77h2v1h-2zM45,78h3v1h-3zM53,78h17v1h-17zM75,78h1v1h-1zM79,78h1v1h-1zM83,78h64v1h-64zM152,78h3v1h-3zM45,79h3v1h-3zM52,79h17v1h-17zM74,79h1v1h-1zM79,79h1v1h-1zM83,79h65v1h-65zM152,79h3v1h-3zM45,80h2v1h-2zM52,80h16v1h-16zM79,80h2v1h-2zM84,80h64v1h-64zM153,80h2v1h-2zM44,81h3v1h-3zM51,81h14v1h-14zM66,81h1v1h-1zM73,81h1v1h-1zM80,81h2v1h-2zM86,81h63v1h-63zM153,81h3v1h-3zM44,82h2v1h-2zM51,82h14v1h-14zM74,82h1v1h-1zM81,82h3v1h-3zM89,82h60v1h-60zM154,82h2v1h-2zM43,83h3v1h-3zM51,83h14v1h-14zM67,83h1v1h-1zM83,83h4v1h-4zM93,83h56v1h-56zM154,83h2v1h-2zM43,84h2v1h-2zM50,84h16v1h-16zM68,84h1v1h-1zM79,84h1v1h-1zM86,84h6v1h-6zM100,84h50v1h-50zM155,84h2v1h-2zM43,85h2v1h-2zM50,85h17v1h-17zM69,85h2v1h-2zM82,85h3v1h-3zM91,85h5v1h-5zM106,85h44v1h-44zM155,85h2v1h-2zM42,86h3v1h-3zM49,86h19v1h-19zM71,86h1v1h-1zM87,86h3v1h-3zM95,86h5v1h-5zM112,86h39v1h-39zM155,86h3v1h-3zM42,87h2v1h-2zM49,87h21v1h-21zM75,87h1v1h-1zM93,87h1v1h-1zM101,87h4v1h-4zM117,87h34v1h-34zM156,87h2v1h-2zM41,88h3v1h-3zM48,88h25v1h-25zM78,88h3v1h-3zM109,88h3v1h-3zM121,88h30v1h-30zM156,88h3v1h-3zM41,89h2v1h-2zM48,89h28v1h-28zM81,89h3v1h-3zM99,89h2v1h-2zM113,89h3v1h-3zM125,89h27v1h-27zM157,89h2v1h-2zM41,90h2v1h-2zM48,90h32v1h-32zM104,90h2v1h-2zM116,90h3v1h-3zM128,90h24v1h-24zM157,90h2v1h-2zM40,91h2v1h-2zM47,91h36v1h-36zM91,91h2v1h-2zM106,91h1v1h-1zM120,91h4v1h-4zM131,91h22v1h-22zM157,91h3v1h-3zM40,92h2v1h-2zM47,92h40v1h-40zM93,92h3v1h-3zM110,92h2v1h-2zM124,92h4v1h-4zM133,92h20v1h-20zM158,92h2v1h-2zM39,93h3v1h-3zM46,93h44v1h-44zM95,93h3v1h-3zM111,93h2v1h-2zM127,93h3v1h-3zM135,93h18v1h-18zM158,93h3v1h-3zM39,94h2v1h-2zM46,94h46v1h-46zM97,94h3v1h-3zM130,94h3v1h-3zM137,94h17v1h-17zM159,94h2v1h-2zM38,95h3v1h-3zM46,95h49v1h-49zM99,95h3v1h-3zM116,95h2v1h-2zM132,95h4v1h-4zM139,95h15v1h-15zM159,95h2v1h-2zM38,96h3v1h-3zM45,96h52v1h-52zM101,96h2v1h-2zM117,96h2v1h-2zM134,96h3v1h-3zM140,96h15v1h-15zM159,96h3v1h-3zM38,97h2v1h-2zM45,97h53v1h-53zM102,97h3v1h-3zM136,97h3v1h-3zM141,97h14v1h-14zM159,97h3v1h-3zM38,98h2v1h-2zM45,98h55v1h-55zM104,98h2v1h-2zM121,98h1v1h-1zM137,98h3v1h-3zM142,98h13v1h-13zM160,98h2v1h-2zM38,99h2v1h-2zM45,99h56v1h-56zM105,99h1v1h-1zM121,99h2v1h-2zM138,99h3v1h-3zM143,99h12v1h-12zM160,99h2v1h-2zM38,100h2v1h-2zM45,100h57v1h-57zM105,100h2v1h-2zM122,100h1v1h-1zM139,100h3v1h-3zM144,100h11v1h-11zM160,100h2v1h-2zM38,101h3v1h-3zM45,101h58v1h-58zM106,101h2v1h-2zM140,101h2v1h-2zM144,101h11v1h-11zM160,101h2v1h-2zM38,102h3v1h-3zM45,102h59v1h-59zM106,102h2v1h-2zM141,102h2v1h-2zM145,102h10v1h-10zM159,102h3v1h-3zM39,103h2v1h-2zM46,103h58v1h-58zM107,103h1v1h-1zM124,103h1v1h-1zM141,103h2v1h-2zM145,103h9v1h-9zM159,103h2v1h-2zM39,104h2v1h-2zM46,104h59v1h-59zM107,104h1v1h-1zM124,104h1v1h-1zM142,104h2v1h-2zM145,104h9v1h-9zM159,104h2v1h-2zM40,105h2v1h-2zM47,105h58v1h-58zM107,105h1v1h-1zM124,105h1v1h-1zM142,105h2v1h-2zM146,105h7v1h-7zM158,105h3v1h-3zM40,106h2v1h-2zM47,106h58v1h-58zM107,106h1v1h-1zM142,106h2v1h-2zM146,106h7v1h-7zM158,106h2v1h-2zM40,107h3v1h-3zM48,107h57v1h-57zM107,107h1v1h-1zM142,107h2v1h-2zM146,107h7v1h-7zM157,107h3v1h-3zM41,108h2v1h-2zM48,108h57v1h-57zM107,108h1v1h-1zM142,108h2v1h-2zM146,108h6v1h-6zM157,108h2v1h-2zM41,109h3v1h-3zM48,109h57v1h-57zM107,109h1v1h-1zM142,109h2v1h-2zM146,109h6v1h-6zM156,109h3v1h-3zM42,110h2v1h-2zM49,110h56v1h-56zM107,110h1v1h-1zM124,110h2v1h-2zM142,110h2v1h-2zM146,110h5v1h-5zM156,110h3v1h-3zM42,111h2v1h-2zM49,111h55v1h-55zM106,111h1v1h-1zM124,111h1v1h-1zM142,111h1v1h-1zM145,111h6v1h-6zM156,111h2v1h-2zM42,112h3v1h-3zM50,112h54v1h-54zM106,112h1v1h-1zM124,112h1v1h-1zM142,112h1v1h-1zM145,112h6v1h-6zM155,112h3v1h-3zM43,113h2v1h-2zM50,113h54v1h-54zM106,113h1v1h-1zM124,113h1v1h-1zM141,113h2v1h-2zM145,113h5v1h-5zM155,113h2v1h-2zM43,114h3v1h-3zM50,114h53v1h-53zM105,114h1v1h-1zM141,114h1v1h-1zM145,114h5v1h-5zM154,114h3v1h-3zM44,115h2v1h-2zM51,115h52v1h-52zM141,115h1v1h-1zM144,115h5v1h-5zM154,115h2v1h-2zM44,116h2v1h-2zM51,116h51v1h-51zM140,116h1v1h-1zM144,116h5v1h-5zM154,116h2v1h-2zM45,117h2v1h-2zM52,117h50v1h-50zM104,117h1v1h-1zM140,117h1v1h-1zM143,117h5v1h-5zM153,117h3v1h-3zM45,118h2v1h-2zM52,118h49v1h-49zM103,118h1v1h-1zM140,118h1v1h-1zM143,118h5v1h-5zM153,118h2v1h-2zM45,119h3v1h-3zM52,119h48v1h-48zM121,119h1v1h-1zM139,119h1v1h-1zM142,119h6v1h-6zM152,119h3v1h-3zM46,120h2v1h-2zM53,120h46v1h-46zM120,120h1v1h-1zM138,120h1v1h-1zM142,120h5v1h-5zM152,120h2v1h-2zM46,121h2v1h-2zM53,121h46v1h-46zM119,121h2v1h-2zM138,121h1v1h-1zM141,121h6v1h-6zM152,121h2v1h-2zM47,122h2v1h-2zM54,122h44v1h-44zM119,122h1v1h-1zM137,122h1v1h-1zM140,122h6v1h-6zM151,122h2v1h-2zM47,123h2v1h-2zM54,123h43v1h-43zM118,123h1v1h-1zM137,123h1v1h-1zM140,123h6v1h-6zM151,123h2v1h-2zM47,124h3v1h-3zM54,124h42v1h-42zM136,124h1v1h-1zM139,124h6v1h-6zM150,124h3v1h-3zM48,125h2v1h-2zM55,125h40v1h-40zM135,125h1v1h-1zM138,125h7v1h-7zM150,125h2v1h-2zM48,126h3v1h-3zM55,126h40v1h-40zM134,126h1v1h-1zM137,126h8v1h-8zM149,126h3v1h-3zM48,127h3v1h-3zM56,127h38v1h-38zM134,127h1v1h-1zM137,127h7v1h-7zM149,127h2v1h-2zM49,128h2v1h-2zM56,128h37v1h-37zM133,128h1v1h-1zM136,128h8v1h-8zM149,128h2v1h-2zM49,129h3v1h-3zM56,129h36v1h-36zM132,129h1v1h-1zM135,129h8v1h-8zM148,129h3v1h-3zM50,130h2v1h-2zM57,130h34v1h-34zM131,130h1v1h-1zM134,130h9v1h-9zM148,130h2v1h-2zM50,131h3v1h-3zM57,131h33v1h-33zM110,131h2v1h-2zM133,131h9v1h-9zM147,131h3v1h-3zM51,132h2v1h-2zM58,132h31v1h-31zM109,132h2v1h-2zM132,132h10v1h-10zM147,132h2v1h-2zM51,133h2v1h-2zM58,133h30v1h-30zM108,133h2v1h-2zM131,133h11v1h-11zM146,133h3v1h-3zM51,134h3v1h-3zM59,134h28v1h-28zM107,134h2v1h-2zM131,134h10v1h-10zM146,134h2v1h-2zM52,135h2v1h-2zM59,135h27v1h-27zM106,135h2v1h-2zM129,135h12v1h-12zM146,135h2v1h-2zM52,136h3v1h-3zM59,136h25v1h-25zM105,136h2v1h-2zM128,136h12v1h-12zM145,136h3v1h-3zM53,137h2v1h-2zM60,137h23v1h-23zM104,137h2v1h-2zM128,137h12v1h-12zM145,137h2v1h-2zM53,138h2v1h-2zM61,138h21v1h-21zM126,138h13v1h-13zM144,138h3v1h-3zM54,139h2v1h-2zM62,139h19v1h-19zM125,139h13v1h-13zM144,139h2v1h-2zM54,140h3v1h-3zM65,140h15v1h-15zM124,140h12v1h-12zM143,140h3v1h-3zM55,141h3v1h-3zM67,141h12v1h-12zM123,141h10v1h-10zM142,141h3v1h-3zM56,142h3v1h-3zM69,142h8v1h-8zM122,142h9v1h-9zM141,142h3v1h-3zM56,143h4v1h-4zM72,143h4v1h-4zM120,143h8v1h-8zM140,143h4v1h-4zM58,144h5v1h-5zM74,144h1v1h-1zM119,144h7v1h-7zM138,144h4v1h-4zM60,145h5v1h-5zM118,145h5v1h-5zM135,145h6v1h-6zM62,146h5v1h-5zM117,146h4v1h-4zM133,146h6v1h-6zM64,147h6v1h-6zM116,147h3v1h-3zM130,147h6v1h-6zM67,148h5v1h-5zM114,148h2v1h-2zM128,148h6v1h-6zM69,149h6v1h-6zM125,149h6v1h-6zM71,150h6v1h-6zM123,150h6v1h-6zM74,151h5v1h-5zM121,151h5v1h-5zM76,152h6v1h-6zM118,152h6v1h-6zM79,153h5v1h-5zM116,153h6v1h-6zM81,154h5v1h-5zM113,154h6v1h-6zM83,155h6v1h-6zM111,155h6v1h-6zM86,156h5v1h-5zM108,156h6v1h-6zM88,157h6v1h-6zM106,157h6v1h-6zM90,158h6v1h-6zM104,158h5v1h-5zM93,159h14v1h-14zM95,160h9v1h-9z" fill="#000"/>
</svg>